<svg id="visual" viewBox="0 0 1920 540" width="1920" height="540" xmlns="http://www.w3.org/2000/svg" xmlns:xlink="http://www.w3.org/1999/xlink" version="1.1"><path d="M0 392L64 387.3C128 382.7 256 373.3 384 391C512 408.7 640 453.3 768 454.2C896 455 1024 412 1152 414.8C1280 417.7 1408 466.3 1536 468.3C1664 470.3 1792 425.7 1856 403.3L1920 381L1920 541L1856 541C1792 541 1664 541 1536 541C1408 541 1280 541 1152 541C1024 541 896 541 768 541C640 541 512 541 384 541C256 541 128 541 64 541L0 541Z" fill="#4A90E2" stroke-linecap="round" stroke-linejoin="miter"></path></svg>